<svg xmlns="http://www.w3.org/2000/svg" xmlns:xlink="http://www.w3.org/1999/xlink" width="16" height="16" viewBox="0 0 16 16" fill="none"><path d="M3.07692 0L12.9231 0C12.9734 2.40117e-08 13.0238 0.00123548 13.0741 0.00370636C13.1244 0.00617725 13.1746 0.00988058 13.2247 0.0148164C13.2748 0.0197522 13.3247 0.0259144 13.3746 0.0333033C13.4244 0.040692 13.474 0.0492984 13.5234 0.0591225C13.5728 0.0689464 13.6219 0.0799763 13.6707 0.0922119C13.7196 0.104447 13.7681 0.117874 13.8163 0.132492C13.8645 0.147109 13.9122 0.1629 13.9597 0.179864C14.0071 0.196828 14.054 0.214947 14.1006 0.234217C14.1471 0.253487 14.1931 0.273889 14.2386 0.295419C14.2841 0.316948 14.3291 0.339581 14.3735 0.36332C14.4179 0.387058 14.4617 0.41187 14.5049 0.437759C14.5481 0.463647 14.5907 0.49058 14.6325 0.518556C14.6744 0.546533 14.7155 0.575519 14.756 0.605516C14.7965 0.635512 14.8361 0.666484 14.8751 0.69843C14.914 0.730375 14.9521 0.763256 14.9894 0.797073C15.0267 0.830891 15.0632 0.865603 15.0988 0.901211C15.1344 0.936819 15.1691 0.973278 15.2029 1.01059C15.2367 1.0479 15.2696 1.08602 15.3016 1.12494C15.3335 1.16387 15.3645 1.20356 15.3945 1.244C15.4245 1.28445 15.4535 1.32561 15.4814 1.36748C15.5094 1.40935 15.5364 1.45188 15.5623 1.49507C15.5881 1.53826 15.613 1.58206 15.6367 1.62647C15.6605 1.67089 15.6831 1.71586 15.7045 1.76137C15.7261 1.80689 15.7466 1.85292 15.7658 1.89944C15.785 1.94595 15.8031 1.99292 15.8202 2.04034C15.8372 2.08775 15.853 2.13555 15.8675 2.18373C15.882 2.23192 15.8955 2.28044 15.9078 2.3293C15.92 2.37814 15.9311 2.42725 15.9409 2.47664C15.9508 2.52603 15.9594 2.57564 15.9667 2.62544C15.9741 2.67525 15.9803 2.72522 15.9852 2.77533C15.9902 2.82544 15.9939 2.87566 15.9963 2.92595C15.9987 2.97625 16 3.02656 16 3.07692L16 12.9231C16 12.9734 15.9987 13.0238 15.9963 13.0741C15.9939 13.1244 15.9902 13.1746 15.9852 13.2247C15.9803 13.2748 15.9741 13.3247 15.9667 13.3746C15.9594 13.4244 15.9508 13.474 15.9409 13.5234C15.9311 13.5728 15.92 13.6219 15.9078 13.6707C15.8955 13.7196 15.882 13.7681 15.8675 13.8163C15.853 13.8645 15.8372 13.9122 15.8202 13.9597C15.8031 14.0071 15.785 14.054 15.7658 14.1006C15.7466 14.1471 15.7261 14.1931 15.7045 14.2386C15.6831 14.2841 15.6605 14.3291 15.6367 14.3735C15.613 14.4179 15.5881 14.4617 15.5622 14.5049C15.5363 14.5481 15.5094 14.5907 15.4814 14.6325C15.4535 14.6744 15.4245 14.7155 15.3945 14.756C15.3645 14.7965 15.3335 14.8361 15.3016 14.8751C15.2696 14.914 15.2367 14.9521 15.2029 14.9894C15.1691 15.0267 15.1344 15.0632 15.0988 15.0988C15.0632 15.1344 15.0267 15.1691 14.9894 15.2029C14.9521 15.2367 14.914 15.2696 14.8751 15.3016C14.8361 15.3335 14.7965 15.3645 14.756 15.3945C14.7155 15.4245 14.6744 15.4535 14.6325 15.4814C14.5907 15.5094 14.5481 15.5364 14.5049 15.5623C14.4617 15.5881 14.4179 15.613 14.3735 15.6367C14.3291 15.6605 14.2841 15.6831 14.2386 15.7045C14.1931 15.7261 14.1471 15.7466 14.1006 15.7658C14.054 15.785 14.0071 15.8031 13.9597 15.8202C13.9122 15.8372 13.8645 15.853 13.8163 15.8675C13.7681 15.882 13.7196 15.8955 13.6707 15.9078C13.6219 15.92 13.5728 15.9311 13.5234 15.9409C13.474 15.9508 13.4244 15.9594 13.3745 15.9667C13.3247 15.9741 13.2748 15.9803 13.2247 15.9852C13.1746 15.9902 13.1244 15.9939 13.0741 15.9963C13.0238 15.9987 12.9734 16 12.9231 16L3.07692 16C3.02656 16 2.97625 15.9987 2.92595 15.9963C2.87566 15.9939 2.82544 15.9902 2.77533 15.9852C2.72522 15.9803 2.67525 15.9741 2.62544 15.9667C2.57564 15.9594 2.52603 15.9508 2.47664 15.9409C2.42725 15.9311 2.37814 15.92 2.3293 15.9078C2.28044 15.8955 2.23192 15.882 2.18373 15.8675C2.13555 15.853 2.08775 15.8372 2.04034 15.8202C1.99292 15.8031 1.94595 15.785 1.89944 15.7658C1.85292 15.7466 1.80689 15.7261 1.76137 15.7045C1.71586 15.6831 1.67089 15.6605 1.62647 15.6367C1.58206 15.613 1.53826 15.5881 1.49507 15.5622C1.45188 15.5363 1.40935 15.5094 1.36748 15.4814C1.32561 15.4535 1.28445 15.4245 1.244 15.3945C1.20356 15.3645 1.16387 15.3335 1.12494 15.3016C1.08602 15.2696 1.0479 15.2367 1.01059 15.2029C0.973277 15.1691 0.936817 15.1344 0.901209 15.0988C0.865602 15.0632 0.830891 15.0267 0.797073 14.9894C0.763256 14.9521 0.730375 14.914 0.69843 14.8751C0.666484 14.8361 0.635512 14.7965 0.605516 14.756C0.575519 14.7155 0.546531 14.6744 0.518555 14.6325C0.490578 14.5907 0.463647 14.5481 0.437758 14.5049C0.411869 14.4617 0.387056 14.4179 0.363319 14.3735C0.339581 14.3291 0.316947 14.2841 0.295417 14.2386C0.273887 14.1931 0.253487 14.1471 0.234217 14.1006C0.214947 14.054 0.196828 14.0071 0.179864 13.9597C0.1629 13.9122 0.147109 13.8645 0.132491 13.8163C0.117874 13.7681 0.104447 13.7196 0.0922116 13.6707C0.0799759 13.6219 0.0689461 13.5728 0.0591222 13.5234C0.0492983 13.474 0.0406919 13.4244 0.033303 13.3745C0.0259142 13.3247 0.019752 13.2748 0.0148162 13.2247C0.00988045 13.1746 0.00617714 13.1244 0.00370628 13.0741C0.00123543 13.0238 2.18761e-14 12.9734 2.18761e-14 12.9231L2.18761e-14 3.07692C-6.00289e-09 3.02656 0.00123542 2.97625 0.00370627 2.92595C0.00617713 2.87566 0.00988042 2.82544 0.0148162 2.77533C0.019752 2.72522 0.0259142 2.67525 0.033303 2.62544C0.0406917 2.57564 0.0492981 2.52603 0.0591222 2.47664C0.0689461 2.42725 0.0799759 2.37814 0.0922114 2.3293C0.104447 2.28044 0.117874 2.23192 0.132491 2.18373C0.147109 2.13555 0.1629 2.08775 0.179864 2.04034C0.196828 1.99292 0.214947 1.94595 0.234217 1.89944C0.253487 1.85292 0.273887 1.80689 0.295417 1.76137C0.316947 1.71586 0.339581 1.67089 0.363319 1.62647C0.387056 1.58206 0.411869 1.53826 0.437758 1.49507C0.463647 1.45188 0.490578 1.40935 0.518555 1.36748C0.546531 1.32561 0.575517 1.28445 0.605516 1.244C0.635512 1.20356 0.666484 1.16387 0.69843 1.12494C0.730375 1.08602 0.763256 1.0479 0.797073 1.01059C0.830891 0.973277 0.865602 0.936817 0.901209 0.901209C0.936817 0.865602 0.973277 0.830891 1.01059 0.797073C1.0479 0.763256 1.08602 0.730375 1.12494 0.69843C1.16387 0.666484 1.20356 0.635512 1.244 0.605516C1.28445 0.575519 1.32561 0.546531 1.36748 0.518555C1.40935 0.490578 1.45188 0.463647 1.49507 0.437758C1.53826 0.411869 1.58206 0.387056 1.62647 0.363319C1.67089 0.339581 1.71586 0.316947 1.76137 0.295417C1.80689 0.273887 1.85292 0.253487 1.89944 0.234217C1.94595 0.214947 1.99292 0.196828 2.04034 0.179864C2.08775 0.1629 2.13555 0.147109 2.18373 0.132491C2.23192 0.117874 2.28044 0.104447 2.3293 0.0922116C2.37814 0.0799761 2.42725 0.0689462 2.47664 0.0591222C2.52603 0.0492983 2.57564 0.0406919 2.62544 0.0333031C2.67525 0.0259142 2.72522 0.019752 2.77533 0.0148162C2.82544 0.00988047 2.87566 0.00617714 2.92595 0.00370628C2.97625 0.00123543 3.02656 0 3.07692 0ZM3.07692 1.23077C3.04672 1.23077 3.01652 1.23151 2.98634 1.23299C2.95617 1.23448 2.92605 1.2367 2.89597 1.23966C2.86589 1.24262 2.83592 1.24632 2.80603 1.25075C2.77614 1.25518 2.74639 1.26035 2.71675 1.26624C2.68712 1.27214 2.65766 1.27875 2.62834 1.2861C2.59903 1.29344 2.56992 1.30149 2.54102 1.31026C2.51209 1.31903 2.48342 1.32851 2.45497 1.33869C2.42652 1.34887 2.39834 1.35974 2.37044 1.3713C2.34252 1.38286 2.31491 1.3951 2.28759 1.40802C2.26028 1.42094 2.2333 1.43452 2.20666 1.44876C2.18002 1.463 2.15373 1.47789 2.12781 1.49342C2.10189 1.50896 2.07638 1.52512 2.05125 1.5419C2.02614 1.55869 2.00144 1.57608 1.97717 1.59408C1.95291 1.61208 1.92909 1.63066 1.90573 1.64983C1.88238 1.669 1.85952 1.68872 1.83712 1.70902C1.81473 1.72931 1.79286 1.75014 1.7715 1.7715C1.75014 1.79286 1.72931 1.81473 1.70902 1.83712C1.68872 1.85952 1.669 1.88238 1.64983 1.90573C1.63066 1.92909 1.61208 1.95291 1.59408 1.97717C1.57608 2.00144 1.55869 2.02614 1.5419 2.05125C1.52512 2.07638 1.50896 2.10189 1.49342 2.12781C1.47789 2.15373 1.463 2.18002 1.44876 2.20666C1.43452 2.2333 1.42094 2.26028 1.40802 2.28759C1.3951 2.31491 1.38286 2.34252 1.3713 2.37044C1.35974 2.39834 1.34887 2.42652 1.33869 2.45497C1.32851 2.48342 1.31903 2.51209 1.31026 2.54102C1.30149 2.56992 1.29344 2.59903 1.2861 2.62834C1.27875 2.65766 1.27214 2.68712 1.26624 2.71675C1.26035 2.74639 1.25518 2.77614 1.25075 2.80603C1.24632 2.83592 1.24262 2.86589 1.23966 2.89597C1.2367 2.92605 1.23448 2.95617 1.23299 2.98634C1.23151 3.01652 1.23077 3.04672 1.23077 3.07692L1.23077 12.9231C1.23077 12.9533 1.23151 12.9835 1.23299 13.0137C1.23448 13.0438 1.2367 13.074 1.23966 13.104C1.24262 13.1341 1.24632 13.1641 1.25075 13.194C1.25518 13.2239 1.26035 13.2536 1.26624 13.2832C1.27214 13.3129 1.27875 13.3423 1.2861 13.3717C1.29344 13.401 1.30149 13.4301 1.31026 13.459C1.31903 13.4879 1.32851 13.5166 1.33869 13.545C1.34887 13.5735 1.35974 13.6017 1.3713 13.6296C1.38286 13.6575 1.3951 13.6851 1.40802 13.7124C1.42094 13.7397 1.43452 13.7667 1.44876 13.7933C1.463 13.82 1.47789 13.8463 1.49342 13.8722C1.50896 13.8981 1.52512 13.9236 1.5419 13.9487C1.55869 13.9739 1.57608 13.9986 1.59408 14.0228C1.61208 14.0471 1.63066 14.0709 1.64983 14.0943C1.669 14.1176 1.68872 14.1405 1.70902 14.1629C1.72931 14.1853 1.75014 14.2071 1.7715 14.2285C1.79286 14.2499 1.81473 14.2707 1.83712 14.291C1.85952 14.3113 1.88238 14.331 1.90573 14.3502C1.92909 14.3693 1.95291 14.3879 1.97717 14.4059C2.00144 14.4239 2.02614 14.4413 2.05125 14.4581C2.07638 14.4749 2.10189 14.491 2.12781 14.5066C2.15373 14.5221 2.18002 14.537 2.20666 14.5512C2.2333 14.5655 2.26028 14.5791 2.28759 14.592C2.31491 14.6049 2.34252 14.6171 2.37044 14.6287C2.39834 14.6403 2.42652 14.6511 2.45497 14.6613C2.48342 14.6715 2.51209 14.681 2.54102 14.6897C2.56992 14.6985 2.59903 14.7066 2.62834 14.7139C2.65766 14.7212 2.68712 14.7279 2.71675 14.7338C2.74639 14.7397 2.77614 14.7448 2.80603 14.7493C2.83592 14.7537 2.86589 14.7574 2.89597 14.7603C2.92605 14.7633 2.95617 14.7655 2.98634 14.767C3.01652 14.7685 3.04672 14.7692 3.07692 14.7692L12.9231 14.7692C12.9533 14.7692 12.9835 14.7685 13.0137 14.767C13.0438 14.7655 13.074 14.7633 13.104 14.7603C13.1341 14.7574 13.1641 14.7537 13.194 14.7493C13.2239 14.7448 13.2536 14.7397 13.2832 14.7338C13.3129 14.7279 13.3423 14.7212 13.3717 14.7139C13.401 14.7066 13.4301 14.6985 13.459 14.6897C13.4879 14.681 13.5166 14.6715 13.545 14.6613C13.5735 14.6511 13.6017 14.6403 13.6296 14.6287C13.6575 14.6171 13.6851 14.6049 13.7124 14.592C13.7397 14.5791 13.7667 14.5655 13.7933 14.5512C13.82 14.537 13.8463 14.5221 13.8722 14.5066C13.8981 14.491 13.9236 14.4749 13.9487 14.4581C13.9739 14.4413 13.9986 14.4239 14.0228 14.4059C14.0471 14.3879 14.0709 14.3693 14.0943 14.3502C14.1176 14.331 14.1405 14.3113 14.1629 14.291C14.1853 14.2707 14.2071 14.2499 14.2285 14.2285C14.2499 14.2071 14.2707 14.1853 14.291 14.1629C14.3113 14.1405 14.331 14.1176 14.3502 14.0943C14.3693 14.0709 14.3879 14.0471 14.4059 14.0228C14.4239 13.9986 14.4413 13.9739 14.4581 13.9487C14.4749 13.9236 14.491 13.8981 14.5066 13.8722C14.5221 13.8463 14.537 13.82 14.5512 13.7933C14.5655 13.7667 14.5791 13.7397 14.592 13.7124C14.6049 13.6851 14.6171 13.6575 14.6287 13.6296C14.6403 13.6017 14.6511 13.5735 14.6613 13.545C14.6715 13.5166 14.681 13.4879 14.6897 13.459C14.6985 13.4301 14.7066 13.401 14.7139 13.3717C14.7212 13.3423 14.7279 13.3129 14.7338 13.2832C14.7397 13.2536 14.7448 13.2239 14.7493 13.194C14.7537 13.1641 14.7574 13.1341 14.7603 13.104C14.7633 13.074 14.7655 13.0438 14.767 13.0137C14.7685 12.9835 14.7692 12.9533 14.7692 12.9231L14.7692 3.07692C14.7692 3.04672 14.7685 3.01652 14.767 2.98634C14.7655 2.95617 14.7633 2.92605 14.7603 2.89597C14.7574 2.86589 14.7537 2.83592 14.7493 2.80603C14.7448 2.77614 14.7397 2.74639 14.7338 2.71675C14.7279 2.68712 14.7212 2.65766 14.7139 2.62834C14.7066 2.59903 14.6985 2.56992 14.6897 2.54102C14.681 2.51209 14.6715 2.48342 14.6613 2.45497C14.6511 2.42652 14.6403 2.39834 14.6287 2.37044C14.6171 2.34252 14.6049 2.31491 14.592 2.28759C14.5791 2.26028 14.5655 2.2333 14.5512 2.20666C14.537 2.18002 14.5221 2.15373 14.5066 2.12781C14.491 2.10189 14.4749 2.07638 14.4581 2.05125C14.4413 2.02614 14.4239 2.00144 14.4059 1.97717C14.3879 1.95291 14.3693 1.92909 14.3502 1.90573C14.331 1.88238 14.3113 1.85952 14.291 1.83712C14.2707 1.81473 14.2499 1.79286 14.2285 1.7715C14.2071 1.75014 14.1853 1.72931 14.1629 1.70902C14.1405 1.68872 14.1176 1.669 14.0943 1.64983C14.0709 1.63066 14.0471 1.61208 14.0228 1.59408C13.9986 1.57608 13.9739 1.55869 13.9487 1.5419C13.9236 1.52512 13.8981 1.50896 13.8722 1.49343C13.8463 1.47789 13.82 1.463 13.7933 1.44876C13.7667 1.43452 13.7397 1.42094 13.7124 1.40802C13.6851 1.3951 13.6575 1.38286 13.6296 1.3713C13.6017 1.35974 13.5735 1.34887 13.545 1.33869C13.5166 1.32851 13.4879 1.31903 13.459 1.31026C13.4301 1.30149 13.401 1.29344 13.3717 1.2861C13.3423 1.27875 13.3129 1.27214 13.2832 1.26624C13.2536 1.26035 13.2239 1.25518 13.194 1.25075C13.1641 1.24632 13.1341 1.24262 13.104 1.23966C13.074 1.2367 13.0438 1.23448 13.0137 1.23299C12.9835 1.23151 12.9533 1.23077 12.9231 1.23077L3.07692 1.23077ZM12.216 5.26523C12.2228 5.27167 12.2294 5.27827 12.2358 5.28503C12.2423 5.2918 12.2485 5.2987 12.2546 5.30578C12.2607 5.31286 12.2667 5.32008 12.2724 5.32744C12.2781 5.3348 12.2837 5.3423 12.2891 5.34994C12.2945 5.35758 12.2997 5.36533 12.3047 5.37322C12.3096 5.38111 12.3144 5.38912 12.319 5.39725C12.3237 5.40538 12.328 5.41361 12.3322 5.42195C12.3365 5.4303 12.3405 5.43873 12.3442 5.44727C12.348 5.45581 12.3516 5.46444 12.355 5.47316C12.3583 5.48186 12.3615 5.49066 12.3644 5.49953C12.3673 5.50839 12.37 5.51733 12.3725 5.52633C12.375 5.53533 12.3773 5.54439 12.3793 5.5535C12.3814 5.56261 12.3832 5.57177 12.3848 5.58097C12.3864 5.59017 12.3877 5.59942 12.3889 5.60869C12.39 5.61795 12.391 5.62725 12.3916 5.63656C12.3923 5.64587 12.3928 5.6552 12.393 5.66453C12.3932 5.67387 12.3932 5.68322 12.393 5.69255C12.3928 5.70188 12.3923 5.7112 12.3916 5.72053C12.3909 5.72984 12.39 5.73914 12.3889 5.74841C12.3877 5.75767 12.3864 5.76691 12.3848 5.77611C12.3832 5.78531 12.3813 5.79447 12.3793 5.80358C12.3772 5.81269 12.375 5.82175 12.3725 5.83075C12.37 5.83975 12.3673 5.84869 12.3643 5.85755C12.3614 5.86641 12.3582 5.8752 12.3549 5.88392C12.3515 5.89262 12.348 5.90125 12.3442 5.9098C12.3404 5.91834 12.3364 5.92678 12.3322 5.93511C12.328 5.94345 12.3236 5.95169 12.319 5.95981C12.3144 5.96794 12.3096 5.97594 12.3046 5.98383C12.2996 5.99172 12.2944 5.99948 12.289 6.00711C12.2836 6.01475 12.278 6.02225 12.2723 6.02961C12.2665 6.03697 12.2606 6.04419 12.2545 6.05125C12.2484 6.05833 12.2421 6.06523 12.2357 6.072L7.55631 10.9643C7.55447 10.9668 7.55016 10.968 7.54647 10.9717L7.54031 10.9803C7.50647 11.0135 7.46647 11.0308 7.42769 11.0542C7.40308 11.0677 7.384 11.088 7.35877 11.0985C7.3503 11.102 7.34175 11.1053 7.33311 11.1085C7.32447 11.1116 7.31577 11.1145 7.30698 11.1172C7.2982 11.1199 7.28936 11.1224 7.28045 11.1247C7.27155 11.1269 7.26259 11.129 7.25359 11.1308C7.24459 11.1326 7.23555 11.1342 7.22647 11.1356C7.21739 11.137 7.20828 11.1382 7.19914 11.1391C7.19 11.14 7.18083 11.1407 7.17166 11.1412C7.16248 11.1417 7.15331 11.1419 7.14412 11.142C7.13494 11.142 7.12575 11.1418 7.11658 11.1413C7.10741 11.1409 7.09823 11.1403 7.08909 11.1394C7.07995 11.1385 7.07083 11.1374 7.06175 11.1361C7.05266 11.1348 7.04361 11.1332 7.03459 11.1314C7.02558 11.1297 7.01661 11.1277 7.00769 11.1255C6.99878 11.1233 6.98992 11.1208 6.98112 11.1182C6.97233 11.1155 6.96361 11.1126 6.95495 11.1096C6.9463 11.1065 6.93772 11.1032 6.92923 11.0997C6.90953 11.0917 6.89353 11.0745 6.87384 11.064C6.83077 11.0412 6.78647 11.0197 6.74831 10.984C6.74523 10.9815 6.744 10.9772 6.74031 10.9735C6.73723 10.9717 6.73416 10.9705 6.73169 10.968L4.37477 8.52123C4.36827 8.51452 4.36194 8.50764 4.35578 8.50062C4.34961 8.49361 4.34363 8.48644 4.33781 8.47911C4.33202 8.4718 4.32639 8.46434 4.32094 8.45675C4.3155 8.44916 4.31025 8.44144 4.30519 8.43358C4.30013 8.42572 4.29525 8.41775 4.29058 8.40966C4.28591 8.40156 4.28145 8.39336 4.27719 8.38505C4.27292 8.37672 4.26886 8.36831 4.26502 8.3598C4.26116 8.35128 4.25752 8.34269 4.25409 8.33398C4.25067 8.3253 4.24745 8.31653 4.24445 8.30767C4.24147 8.29883 4.23869 8.28991 4.23612 8.28092C4.23358 8.27194 4.23123 8.26289 4.22913 8.25378C4.22702 8.24467 4.22514 8.23553 4.22347 8.22634C4.22181 8.21714 4.22038 8.20792 4.21917 8.19866C4.21797 8.18939 4.21698 8.18009 4.21625 8.17078C4.2155 8.16147 4.21498 8.15214 4.21469 8.1428C4.21439 8.13347 4.21434 8.12412 4.21452 8.11478C4.21469 8.10544 4.21508 8.09611 4.21572 8.08678C4.21634 8.07745 4.2172 8.06816 4.2183 8.05888C4.21938 8.04959 4.22069 8.04034 4.22223 8.03113C4.22378 8.02192 4.22556 8.01275 4.22755 8.00362C4.22955 7.99448 4.23177 7.98541 4.2342 7.97639C4.23666 7.96737 4.23931 7.95842 4.2422 7.94953C4.24508 7.94064 4.24817 7.93184 4.2515 7.92311C4.25481 7.91437 4.25834 7.90572 4.26209 7.89716C4.26583 7.88859 4.26978 7.88013 4.27394 7.87177C4.27811 7.86341 4.28247 7.85514 4.28703 7.84698C4.29161 7.83884 4.29637 7.83081 4.30133 7.82289C4.30628 7.81497 4.31144 7.80719 4.3168 7.79952C4.32214 7.79184 4.32767 7.78433 4.33339 7.77694C4.33909 7.76955 4.34498 7.7623 4.35106 7.7552C4.35714 7.74809 4.36338 7.74116 4.3698 7.73436C4.37622 7.72756 4.3828 7.72094 4.38953 7.71447C4.39623 7.70795 4.40311 7.70161 4.41012 7.69544C4.41714 7.68927 4.42431 7.68328 4.43162 7.67745C4.43895 7.67164 4.44641 7.666 4.45398 7.66055C4.46158 7.65509 4.4693 7.64984 4.47716 7.64477C4.48502 7.6397 4.49298 7.63483 4.50108 7.63016C4.50917 7.62548 4.51737 7.621 4.52569 7.61673C4.534 7.61245 4.54241 7.60839 4.55092 7.60453C4.55944 7.60067 4.56803 7.59703 4.57673 7.59359C4.58542 7.59017 4.59419 7.58695 4.60305 7.58395C4.61191 7.58095 4.62083 7.57817 4.62981 7.57561C4.6388 7.57305 4.64784 7.5707 4.65695 7.56859C4.66606 7.56648 4.6752 7.56459 4.68441 7.56292C4.69361 7.56127 4.70284 7.55983 4.71211 7.55863C4.72137 7.55742 4.73066 7.55644 4.73998 7.55569C4.7493 7.55494 4.75863 7.55442 4.76797 7.55412C4.77731 7.55383 4.78666 7.55378 4.796 7.55395C4.80534 7.55412 4.81467 7.55452 4.824 7.55516C4.83333 7.55578 4.84263 7.55664 4.85192 7.55773C4.8612 7.55883 4.87045 7.56014 4.87967 7.56169C4.88889 7.56323 4.89806 7.565 4.90719 7.567C4.91633 7.569 4.92541 7.57122 4.93442 7.57367C4.94344 7.57613 4.95239 7.57878 4.96128 7.58167C4.97017 7.58456 4.97898 7.58766 4.98772 7.59098C4.99645 7.59431 5.00511 7.59784 5.01367 7.60159C5.02222 7.60534 5.03069 7.6093 5.03906 7.61347C5.04742 7.61764 5.05569 7.622 5.06383 7.62658C5.07198 7.63116 5.08002 7.63592 5.08794 7.64089C5.09586 7.64586 5.10364 7.65102 5.1113 7.65637C5.11897 7.66173 5.12648 7.66727 5.13387 7.673C5.14127 7.67872 5.1485 7.68463 5.15559 7.6907C5.1627 7.69678 5.16964 7.70305 5.17644 7.70947C5.18322 7.71589 5.18984 7.72248 5.19631 7.72923L7.14092 9.74645L11.408 5.28369C11.4145 5.27692 11.4211 5.27033 11.4279 5.26388C11.4346 5.25742 11.4416 5.25116 11.4487 5.24505C11.4558 5.23895 11.463 5.23303 11.4704 5.22728C11.4778 5.22153 11.4853 5.21597 11.4929 5.21059C11.5006 5.20522 11.5084 5.20003 11.5163 5.19503C11.5242 5.19005 11.5322 5.18525 11.5404 5.18064C11.5485 5.17603 11.5568 5.17164 11.5651 5.16744C11.5735 5.16325 11.5819 5.15927 11.5905 5.15548C11.599 5.1517 11.6077 5.14814 11.6164 5.14478C11.6252 5.14142 11.634 5.13828 11.6429 5.13536C11.6517 5.13244 11.6607 5.12975 11.6697 5.12727C11.6787 5.12478 11.6878 5.12252 11.6969 5.12048C11.7061 5.11845 11.7153 5.11664 11.7245 5.11505C11.7337 5.11347 11.7429 5.11211 11.7522 5.11098C11.7615 5.10984 11.7708 5.10895 11.7802 5.10828C11.7895 5.10761 11.7988 5.10716 11.8082 5.10695C11.8175 5.10673 11.8269 5.10675 11.8362 5.107C11.8456 5.10723 11.8549 5.10772 11.8643 5.10842C11.8736 5.10913 11.8829 5.11006 11.8922 5.11122C11.9015 5.11239 11.9107 5.11378 11.9199 5.11539C11.9291 5.117 11.9383 5.11884 11.9474 5.12092C11.9565 5.12298 11.9656 5.12527 11.9746 5.12778C11.9836 5.1303 11.9926 5.13303 12.0015 5.13598C12.0103 5.13894 12.0191 5.14209 12.0278 5.14548C12.0366 5.14888 12.0452 5.15247 12.0538 5.15628C12.0623 5.16009 12.0707 5.16411 12.0791 5.16833C12.0874 5.17256 12.0957 5.17698 12.1038 5.18161C12.1119 5.18623 12.1199 5.19106 12.1278 5.19608C12.1357 5.20111 12.1435 5.20633 12.1511 5.21172C12.1588 5.21712 12.1663 5.22272 12.1736 5.22848C12.181 5.23427 12.1882 5.24022 12.1953 5.24634C12.2023 5.25247 12.2092 5.25877 12.216 5.26523Z"   fill="#383838" ></path></svg>