<svg xmlns="http://www.w3.org/2000/svg" xmlns:xlink="http://www.w3.org/1999/xlink" width="16" height="16" viewBox="0 0 16 16" fill="none"><path d="M3.07692 1.23077C3.04672 1.23077 3.01652 1.23151 2.98634 1.23299C2.95617 1.23448 2.92605 1.2367 2.89597 1.23966C2.86589 1.24262 2.83592 1.24632 2.80603 1.25075C2.77614 1.25518 2.74639 1.26035 2.71675 1.26624C2.68712 1.27214 2.65766 1.27875 2.62834 1.2861C2.59903 1.29344 2.56992 1.30149 2.54102 1.31026C2.51209 1.31903 2.48342 1.32851 2.45497 1.33869C2.42652 1.34887 2.39834 1.35974 2.37044 1.3713C2.34252 1.38286 2.31491 1.3951 2.28759 1.40802C2.26028 1.42094 2.2333 1.43452 2.20666 1.44876C2.18002 1.463 2.15373 1.47789 2.12781 1.49342C2.10189 1.50896 2.07638 1.52512 2.05125 1.5419C2.02614 1.55869 2.00144 1.57608 1.97717 1.59408C1.95291 1.61208 1.92909 1.63066 1.90573 1.64983C1.88238 1.669 1.85952 1.68872 1.83712 1.70902C1.81473 1.72931 1.79286 1.75014 1.7715 1.7715C1.75014 1.79286 1.72931 1.81473 1.70902 1.83712C1.68872 1.85952 1.669 1.88238 1.64983 1.90573C1.63066 1.92909 1.61208 1.95291 1.59408 1.97717C1.57608 2.00144 1.55869 2.02614 1.5419 2.05125C1.52512 2.07638 1.50896 2.10189 1.49342 2.12781C1.47789 2.15373 1.463 2.18002 1.44876 2.20666C1.43452 2.2333 1.42094 2.26028 1.40802 2.28759C1.3951 2.31491 1.38286 2.34252 1.3713 2.37044C1.35974 2.39834 1.34887 2.42652 1.33869 2.45497C1.32851 2.48342 1.31903 2.51209 1.31026 2.54102C1.30149 2.56992 1.29344 2.59903 1.2861 2.62834C1.27875 2.65766 1.27214 2.68712 1.26624 2.71675C1.26035 2.74639 1.25518 2.77614 1.25075 2.80603C1.24632 2.83592 1.24262 2.86589 1.23966 2.89597C1.2367 2.92605 1.23448 2.95617 1.23299 2.98634C1.23151 3.01652 1.23077 3.04672 1.23077 3.07692L1.23077 12.9231C1.23077 12.9533 1.23151 12.9835 1.23299 13.0137C1.23448 13.0438 1.2367 13.074 1.23966 13.104C1.24262 13.1341 1.24632 13.1641 1.25075 13.194C1.25518 13.2239 1.26035 13.2536 1.26624 13.2832C1.27214 13.3129 1.27875 13.3423 1.2861 13.3717C1.29344 13.401 1.30149 13.4301 1.31026 13.459C1.31903 13.4879 1.32851 13.5166 1.33869 13.545C1.34887 13.5735 1.35974 13.6017 1.3713 13.6296C1.38286 13.6575 1.3951 13.6851 1.40802 13.7124C1.42094 13.7397 1.43452 13.7667 1.44876 13.7933C1.463 13.82 1.47789 13.8463 1.49342 13.8722C1.50896 13.8981 1.52512 13.9236 1.5419 13.9487C1.55869 13.9739 1.57608 13.9986 1.59408 14.0228C1.61208 14.0471 1.63066 14.0709 1.64983 14.0943C1.669 14.1176 1.68872 14.1405 1.70902 14.1629C1.72931 14.1853 1.75014 14.2071 1.7715 14.2285C1.79286 14.2499 1.81473 14.2707 1.83712 14.291C1.85952 14.3113 1.88238 14.331 1.90573 14.3502C1.92909 14.3693 1.95291 14.3879 1.97717 14.4059C2.00144 14.4239 2.02614 14.4413 2.05125 14.4581C2.07638 14.4749 2.10189 14.491 2.12781 14.5066C2.15373 14.5221 2.18002 14.537 2.20666 14.5512C2.2333 14.5655 2.26028 14.5791 2.28759 14.592C2.31491 14.6049 2.34252 14.6171 2.37044 14.6287C2.39834 14.6403 2.42652 14.6511 2.45497 14.6613C2.48342 14.6715 2.51209 14.681 2.54102 14.6897C2.56992 14.6985 2.59903 14.7066 2.62834 14.7139C2.65766 14.7212 2.68712 14.7279 2.71675 14.7338C2.74639 14.7397 2.77614 14.7448 2.80603 14.7493C2.83592 14.7537 2.86589 14.7574 2.89597 14.7603C2.92605 14.7633 2.95617 14.7655 2.98634 14.767C3.01652 14.7685 3.04672 14.7692 3.07692 14.7692L12.9231 14.7692C12.9533 14.7692 12.9835 14.7685 13.0137 14.767C13.0438 14.7655 13.074 14.7633 13.104 14.7603C13.1341 14.7574 13.1641 14.7537 13.194 14.7493C13.2239 14.7448 13.2536 14.7397 13.2832 14.7338C13.3129 14.7279 13.3423 14.7212 13.3717 14.7139C13.401 14.7066 13.4301 14.6985 13.459 14.6897C13.4879 14.681 13.5166 14.6715 13.545 14.6613C13.5735 14.6511 13.6017 14.6403 13.6296 14.6287C13.6575 14.6171 13.6851 14.6049 13.7124 14.592C13.7397 14.5791 13.7667 14.5655 13.7933 14.5512C13.82 14.537 13.8463 14.5221 13.8722 14.5066C13.8981 14.491 13.9236 14.4749 13.9487 14.4581C13.9739 14.4413 13.9986 14.4239 14.0228 14.4059C14.0471 14.3879 14.0709 14.3693 14.0943 14.3502C14.1176 14.331 14.1405 14.3113 14.1629 14.291C14.1853 14.2707 14.2071 14.2499 14.2285 14.2285C14.2499 14.2071 14.2707 14.1853 14.291 14.1629C14.3113 14.1405 14.331 14.1176 14.3502 14.0943C14.3693 14.0709 14.3879 14.0471 14.4059 14.0228C14.4239 13.9986 14.4413 13.9739 14.4581 13.9487C14.4749 13.9236 14.491 13.8981 14.5066 13.8722C14.5221 13.8463 14.537 13.82 14.5512 13.7933C14.5655 13.7667 14.5791 13.7397 14.592 13.7124C14.6049 13.6851 14.6171 13.6575 14.6287 13.6296C14.6403 13.6017 14.6511 13.5735 14.6613 13.545C14.6715 13.5166 14.681 13.4879 14.6897 13.459C14.6985 13.4301 14.7066 13.401 14.7139 13.3717C14.7212 13.3423 14.7279 13.3129 14.7338 13.2832C14.7397 13.2536 14.7448 13.2239 14.7493 13.194C14.7537 13.1641 14.7574 13.1341 14.7603 13.104C14.7633 13.074 14.7655 13.0438 14.767 13.0137C14.7685 12.9835 14.7692 12.9533 14.7692 12.9231L14.7692 3.07692C14.7692 3.04672 14.7685 3.01652 14.767 2.98634C14.7655 2.95617 14.7633 2.92605 14.7603 2.89597C14.7574 2.86589 14.7537 2.83592 14.7493 2.80603C14.7448 2.77614 14.7397 2.74639 14.7338 2.71675C14.7279 2.68712 14.7212 2.65766 14.7139 2.62834C14.7066 2.59903 14.6985 2.56992 14.6897 2.54102C14.681 2.51209 14.6715 2.48342 14.6613 2.45497C14.6511 2.42652 14.6403 2.39834 14.6287 2.37044C14.6171 2.34252 14.6049 2.31491 14.592 2.28759C14.5791 2.26028 14.5655 2.2333 14.5512 2.20666C14.537 2.18002 14.5221 2.15373 14.5066 2.12781C14.491 2.10189 14.4749 2.07638 14.4581 2.05125C14.4413 2.02614 14.4239 2.00144 14.4059 1.97717C14.3879 1.95291 14.3693 1.92909 14.3502 1.90573C14.331 1.88238 14.3113 1.85952 14.291 1.83712C14.2707 1.81473 14.2499 1.79286 14.2285 1.7715C14.2071 1.75014 14.1853 1.72931 14.1629 1.70902C14.1405 1.68872 14.1176 1.669 14.0943 1.64983C14.0709 1.63066 14.0471 1.61208 14.0228 1.59408C13.9986 1.57608 13.9739 1.55869 13.9487 1.5419C13.9236 1.52512 13.8981 1.50896 13.8722 1.49343C13.8463 1.47789 13.82 1.463 13.7933 1.44876C13.7667 1.43452 13.7397 1.42094 13.7124 1.40802C13.6851 1.3951 13.6575 1.38286 13.6296 1.3713C13.6017 1.35974 13.5735 1.34887 13.545 1.33869C13.5166 1.32851 13.4879 1.31903 13.459 1.31026C13.4301 1.30149 13.401 1.29344 13.3717 1.2861C13.3423 1.27875 13.3129 1.27214 13.2832 1.26624C13.2536 1.26035 13.2239 1.25518 13.194 1.25075C13.1641 1.24632 13.1341 1.24262 13.104 1.23966C13.074 1.2367 13.0438 1.23448 13.0137 1.23299C12.9835 1.23151 12.9533 1.23077 12.9231 1.23077L3.07692 1.23077ZM3.07692 0L12.9231 0C12.9734 2.40117e-08 13.0238 0.00123548 13.0741 0.00370636C13.1244 0.00617725 13.1746 0.00988058 13.2247 0.0148164C13.2748 0.0197522 13.3247 0.0259144 13.3746 0.0333033C13.4244 0.040692 13.474 0.0492984 13.5234 0.0591225C13.5728 0.0689464 13.6219 0.0799763 13.6707 0.0922119C13.7196 0.104447 13.7681 0.117874 13.8163 0.132492C13.8645 0.147109 13.9122 0.1629 13.9597 0.179864C14.0071 0.196828 14.054 0.214947 14.1006 0.234217C14.1471 0.253487 14.1931 0.273889 14.2386 0.295419C14.2841 0.316948 14.3291 0.339581 14.3735 0.36332C14.4179 0.387058 14.4617 0.41187 14.5049 0.437759C14.5481 0.463647 14.5907 0.49058 14.6325 0.518556C14.6744 0.546533 14.7155 0.575519 14.756 0.605516C14.7965 0.635512 14.8361 0.666484 14.8751 0.69843C14.914 0.730375 14.9521 0.763256 14.9894 0.797073C15.0267 0.830891 15.0632 0.865603 15.0988 0.901211C15.1344 0.936819 15.1691 0.973278 15.2029 1.01059C15.2367 1.0479 15.2696 1.08602 15.3016 1.12494C15.3335 1.16387 15.3645 1.20356 15.3945 1.244C15.4245 1.28445 15.4535 1.32561 15.4814 1.36748C15.5094 1.40935 15.5364 1.45188 15.5623 1.49507C15.5881 1.53826 15.613 1.58206 15.6367 1.62647C15.6605 1.67089 15.6831 1.71586 15.7045 1.76137C15.7261 1.80689 15.7466 1.85292 15.7658 1.89944C15.785 1.94595 15.8031 1.99292 15.8202 2.04034C15.8372 2.08775 15.853 2.13555 15.8675 2.18373C15.882 2.23192 15.8955 2.28044 15.9078 2.3293C15.92 2.37814 15.9311 2.42725 15.9409 2.47664C15.9508 2.52603 15.9594 2.57564 15.9667 2.62544C15.9741 2.67525 15.9803 2.72522 15.9852 2.77533C15.9902 2.82544 15.9939 2.87566 15.9963 2.92595C15.9987 2.97625 16 3.02656 16 3.07692L16 12.9231C16 12.9734 15.9987 13.0238 15.9963 13.0741C15.9939 13.1244 15.9902 13.1746 15.9852 13.2247C15.9803 13.2748 15.9741 13.3247 15.9667 13.3746C15.9594 13.4244 15.9508 13.474 15.9409 13.5234C15.9311 13.5728 15.92 13.6219 15.9078 13.6707C15.8955 13.7196 15.882 13.7681 15.8675 13.8163C15.853 13.8645 15.8372 13.9122 15.8202 13.9597C15.8031 14.0071 15.785 14.054 15.7658 14.1006C15.7466 14.1471 15.7261 14.1931 15.7045 14.2386C15.6831 14.2841 15.6605 14.3291 15.6367 14.3735C15.613 14.4179 15.5881 14.4617 15.5622 14.5049C15.5363 14.5481 15.5094 14.5907 15.4814 14.6325C15.4535 14.6744 15.4245 14.7155 15.3945 14.756C15.3645 14.7965 15.3335 14.8361 15.3016 14.8751C15.2696 14.914 15.2367 14.9521 15.2029 14.9894C15.1691 15.0267 15.1344 15.0632 15.0988 15.0988C15.0632 15.1344 15.0267 15.1691 14.9894 15.2029C14.9521 15.2367 14.914 15.2696 14.8751 15.3016C14.8361 15.3335 14.7965 15.3645 14.756 15.3945C14.7155 15.4245 14.6744 15.4535 14.6325 15.4814C14.5907 15.5094 14.5481 15.5364 14.5049 15.5623C14.4617 15.5881 14.4179 15.613 14.3735 15.6367C14.3291 15.6605 14.2841 15.6831 14.2386 15.7045C14.1931 15.7261 14.1471 15.7466 14.1006 15.7658C14.054 15.785 14.0071 15.8031 13.9597 15.8202C13.9122 15.8372 13.8645 15.853 13.8163 15.8675C13.7681 15.882 13.7196 15.8955 13.6707 15.9078C13.6219 15.92 13.5728 15.9311 13.5234 15.9409C13.474 15.9508 13.4244 15.9594 13.3745 15.9667C13.3247 15.9741 13.2748 15.9803 13.2247 15.9852C13.1746 15.9902 13.1244 15.9939 13.0741 15.9963C13.0238 15.9987 12.9734 16 12.9231 16L3.07692 16C3.02656 16 2.97625 15.9987 2.92595 15.9963C2.87566 15.9939 2.82544 15.9902 2.77533 15.9852C2.72522 15.9803 2.67525 15.9741 2.62544 15.9667C2.57564 15.9594 2.52603 15.9508 2.47664 15.9409C2.42725 15.9311 2.37814 15.92 2.3293 15.9078C2.28044 15.8955 2.23192 15.882 2.18373 15.8675C2.13555 15.853 2.08775 15.8372 2.04034 15.8202C1.99292 15.8031 1.94595 15.785 1.89944 15.7658C1.85292 15.7466 1.80689 15.7261 1.76137 15.7045C1.71586 15.6831 1.67089 15.6605 1.62647 15.6367C1.58206 15.613 1.53826 15.5881 1.49507 15.5622C1.45188 15.5363 1.40935 15.5094 1.36748 15.4814C1.32561 15.4535 1.28445 15.4245 1.244 15.3945C1.20356 15.3645 1.16387 15.3335 1.12494 15.3016C1.08602 15.2696 1.0479 15.2367 1.01059 15.2029C0.973277 15.1691 0.936817 15.1344 0.901209 15.0988C0.865602 15.0632 0.830891 15.0267 0.797073 14.9894C0.763256 14.9521 0.730375 14.914 0.69843 14.8751C0.666484 14.8361 0.635512 14.7965 0.605516 14.756C0.575519 14.7155 0.546531 14.6744 0.518555 14.6325C0.490578 14.5907 0.463647 14.5481 0.437758 14.5049C0.411869 14.4617 0.387056 14.4179 0.363319 14.3735C0.339581 14.3291 0.316947 14.2841 0.295417 14.2386C0.273887 14.1931 0.253487 14.1471 0.234217 14.1006C0.214947 14.054 0.196828 14.0071 0.179864 13.9597C0.1629 13.9122 0.147109 13.8645 0.132491 13.8163C0.117874 13.7681 0.104447 13.7196 0.0922116 13.6707C0.0799759 13.6219 0.0689461 13.5728 0.0591222 13.5234C0.0492983 13.474 0.0406919 13.4244 0.033303 13.3745C0.0259142 13.3247 0.019752 13.2748 0.0148162 13.2247C0.00988045 13.1746 0.00617714 13.1244 0.00370628 13.0741C0.00123543 13.0238 2.18761e-14 12.9734 2.18761e-14 12.9231L2.18761e-14 3.07692C-6.00289e-09 3.02656 0.00123542 2.97625 0.00370627 2.92595C0.00617713 2.87566 0.00988042 2.82544 0.0148162 2.77533C0.019752 2.72522 0.0259142 2.67525 0.033303 2.62544C0.0406917 2.57564 0.0492981 2.52603 0.0591222 2.47664C0.0689461 2.42725 0.0799759 2.37814 0.0922114 2.3293C0.104447 2.28044 0.117874 2.23192 0.132491 2.18373C0.147109 2.13555 0.1629 2.08775 0.179864 2.04034C0.196828 1.99292 0.214947 1.94595 0.234217 1.89944C0.253487 1.85292 0.273887 1.80689 0.295417 1.76137C0.316947 1.71586 0.339581 1.67089 0.363319 1.62647C0.387056 1.58206 0.411869 1.53826 0.437758 1.49507C0.463647 1.45188 0.490578 1.40935 0.518555 1.36748C0.546531 1.32561 0.575517 1.28445 0.605516 1.244C0.635512 1.20356 0.666484 1.16387 0.69843 1.12494C0.730375 1.08602 0.763256 1.0479 0.797073 1.01059C0.830891 0.973277 0.865602 0.936817 0.901209 0.901209C0.936817 0.865602 0.973277 0.830891 1.01059 0.797073C1.0479 0.763256 1.08602 0.730375 1.12494 0.69843C1.16387 0.666484 1.20356 0.635512 1.244 0.605516C1.28445 0.575519 1.32561 0.546531 1.36748 0.518555C1.40935 0.490578 1.45188 0.463647 1.49507 0.437758C1.53826 0.411869 1.58206 0.387056 1.62647 0.363319C1.67089 0.339581 1.71586 0.316947 1.76137 0.295417C1.80689 0.273887 1.85292 0.253487 1.89944 0.234217C1.94595 0.214947 1.99292 0.196828 2.04034 0.179864C2.08775 0.1629 2.13555 0.147109 2.18373 0.132491C2.23192 0.117874 2.28044 0.104447 2.3293 0.0922116C2.37814 0.0799761 2.42725 0.0689462 2.47664 0.0591222C2.52603 0.0492983 2.57564 0.0406919 2.62544 0.0333031C2.67525 0.0259142 2.72522 0.019752 2.77533 0.0148162C2.82544 0.00988047 2.87566 0.00617714 2.92595 0.00370628C2.97625 0.00123543 3.02656 0 3.07692 0Z"   fill="#383838" ></path></svg>