<svg xmlns="http://www.w3.org/2000/svg" xmlns:xlink="http://www.w3.org/1999/xlink" width="40" height="40" viewBox="0 0 40 40" fill="none"><path d="M35.8333 17.5L35.8333 31.2792L18.75 38.6583L1.66666 31.2792L1.66666 8.30998L18.75 1.66666L35.8333 8.30998L35.8333 10.8808L30.9475 10.8808L18.75 6.13748L5.8333 11.1608L5.8333 28.54L18.75 34.1192L31.6667 28.54L31.6667 17.5L28.3333 17.5L28.3333 13.3333L39.1668 13.3333L39.1668 17.5L35.8333 17.5ZM9.16666 13.3333L13.3333 13.3333L13.3333 28.9933L9.16666 27.1533L9.16666 13.3333ZM21.6667 28.3333C21.5848 28.3333 21.503 28.3313 21.4213 28.3273C21.3396 28.3233 21.258 28.3173 21.1765 28.3092C21.0951 28.3012 21.0139 28.2912 20.933 28.2792C20.852 28.2672 20.7715 28.2532 20.6912 28.2372C20.611 28.2213 20.5311 28.2034 20.4517 28.1835C20.3724 28.1636 20.2935 28.1418 20.2152 28.118C20.1369 28.0943 20.0592 28.0686 19.9822 28.041C19.9052 28.0135 19.8288 27.984 19.7532 27.9527C19.6776 27.9214 19.6029 27.8883 19.5289 27.8533C19.4549 27.8183 19.3819 27.7815 19.3097 27.7429C19.2375 27.7044 19.1663 27.664 19.0961 27.622C19.026 27.5799 18.9569 27.5361 18.8888 27.4906C18.8208 27.4452 18.7539 27.3981 18.6881 27.3494C18.6224 27.3006 18.5579 27.2503 18.4947 27.1984C18.4314 27.1465 18.3695 27.093 18.3088 27.0381C18.2482 26.9831 18.189 26.9267 18.1311 26.8688C18.0733 26.811 18.0169 26.7517 17.9619 26.6911C17.907 26.6305 17.8535 26.5686 17.8016 26.5053C17.7497 26.442 17.6994 26.3776 17.6506 26.3118C17.6019 26.2461 17.5547 26.1792 17.5093 26.1111C17.4638 26.0431 17.4201 25.974 17.378 25.9038C17.336 25.8336 17.2956 25.7625 17.257 25.6903C17.2185 25.6181 17.1817 25.5451 17.1467 25.4711C17.1117 25.3971 17.0786 25.3224 17.0472 25.2467C17.0159 25.1711 16.9865 25.0948 16.9589 25.0177C16.9313 24.9407 16.9057 24.8631 16.8819 24.7847C16.8582 24.7065 16.8364 24.6276 16.8165 24.5482C16.7966 24.4688 16.7787 24.389 16.7627 24.3088C16.7468 24.2285 16.7328 24.1479 16.7208 24.067C16.7088 23.986 16.6988 23.9049 16.6907 23.8234C16.6827 23.742 16.6767 23.6604 16.6727 23.5786C16.6687 23.4969 16.6667 23.4152 16.6667 23.3333C16.6667 23.2515 16.6687 23.1697 16.6727 23.088C16.6767 23.0063 16.6827 22.9247 16.6907 22.8432C16.6988 22.7618 16.7088 22.6806 16.7208 22.5997C16.7328 22.5187 16.7468 22.4381 16.7627 22.3579C16.7787 22.2776 16.7966 22.1978 16.8165 22.1184C16.8364 22.039 16.8582 21.9602 16.8819 21.8819C16.9057 21.8036 16.9313 21.7259 16.9589 21.6488C16.9865 21.5718 17.0159 21.4955 17.0472 21.4199C17.0786 21.3443 17.1117 21.2695 17.1467 21.1955C17.1817 21.1216 17.2185 21.0485 17.257 20.9763C17.2956 20.9042 17.336 20.833 17.378 20.7628C17.4201 20.6926 17.4638 20.6235 17.5093 20.5554C17.5547 20.4874 17.6019 20.4206 17.6506 20.3548C17.6994 20.2891 17.7497 20.2246 17.8016 20.1613C17.8535 20.0981 17.907 20.0361 17.9619 19.9755C18.0169 19.9149 18.0733 19.8557 18.1311 19.7978C18.189 19.7399 18.2482 19.6835 18.3088 19.6286C18.3695 19.5736 18.4314 19.5202 18.4947 19.4683C18.5579 19.4164 18.6224 19.366 18.6881 19.3173C18.7539 19.2685 18.8208 19.2214 18.8888 19.176C18.9569 19.1305 19.026 19.0867 19.0961 19.0447C19.1663 19.0026 19.2375 18.9623 19.3097 18.9237C19.3819 18.8851 19.4549 18.8484 19.5289 18.8134C19.6029 18.7784 19.6776 18.7453 19.7532 18.7139C19.8288 18.6826 19.9052 18.6532 19.9822 18.6256C20.0592 18.598 20.1369 18.5724 20.2152 18.5486C20.2935 18.5249 20.3724 18.5031 20.4517 18.4831C20.5311 18.4633 20.611 18.4454 20.6912 18.4294C20.7715 18.4135 20.852 18.3995 20.933 18.3874C21.0139 18.3754 21.0951 18.3654 21.1765 18.3574C21.258 18.3494 21.3396 18.3434 21.4213 18.3394C21.503 18.3353 21.5848 18.3333 21.6667 18.3333C21.7485 18.3333 21.8302 18.3353 21.912 18.3394C21.9937 18.3434 22.0753 18.3494 22.1567 18.3574C22.2382 18.3654 22.3194 18.3754 22.4003 18.3874C22.4812 18.3995 22.5619 18.4135 22.6421 18.4294C22.7224 18.4454 22.8022 18.4633 22.8815 18.4831C22.9609 18.5031 23.0398 18.5249 23.1181 18.5486C23.1964 18.5724 23.274 18.598 23.3511 18.6256C23.4281 18.6532 23.5045 18.6826 23.5801 18.7139C23.6557 18.7453 23.7304 18.7784 23.8044 18.8134C23.8784 18.8484 23.9515 18.8851 24.0236 18.9237C24.0958 18.9623 24.167 19.0026 24.2372 19.0447C24.3074 19.0867 24.3765 19.1305 24.4445 19.176C24.5126 19.2214 24.5794 19.2685 24.6451 19.3173C24.7109 19.366 24.7754 19.4164 24.8386 19.4683C24.9019 19.5202 24.9638 19.5736 25.0244 19.6286C25.0851 19.6835 25.1443 19.7399 25.2022 19.7978C25.2601 19.8557 25.3165 19.9149 25.3714 19.9755C25.4264 20.0361 25.4798 20.0981 25.5317 20.1613C25.5836 20.2246 25.6339 20.2891 25.6827 20.3548C25.7314 20.4206 25.7785 20.4874 25.824 20.5554C25.8695 20.6235 25.9132 20.6926 25.9553 20.7628C25.9974 20.833 26.0377 20.9042 26.0762 20.9763C26.1148 21.0485 26.1516 21.1216 26.1866 21.1955C26.2216 21.2695 26.2547 21.3443 26.286 21.4199C26.3174 21.4955 26.3468 21.5718 26.3744 21.6488C26.4019 21.7259 26.4276 21.8036 26.4513 21.8819C26.4751 21.9602 26.4969 22.039 26.5168 22.1184C26.5367 22.1978 26.5546 22.2776 26.5706 22.3579C26.5865 22.4381 26.6005 22.5187 26.6125 22.5997C26.6245 22.6806 26.6345 22.7618 26.6426 22.8432C26.6506 22.9247 26.6566 23.0063 26.6606 23.088C26.6647 23.1697 26.6667 23.2515 26.6667 23.3333C26.6667 23.4152 26.6647 23.4969 26.6606 23.5786C26.6566 23.6604 26.6506 23.742 26.6426 23.8234C26.6345 23.9049 26.6245 23.986 26.6125 24.067C26.6005 24.1479 26.5865 24.2285 26.5706 24.3088C26.5546 24.389 26.5367 24.4688 26.5168 24.5482C26.4969 24.6276 26.4751 24.7065 26.4513 24.7847C26.4276 24.8631 26.4019 24.9407 26.3744 25.0177C26.3468 25.0948 26.3174 25.1711 26.286 25.2467C26.2547 25.3224 26.2216 25.3971 26.1866 25.4711C26.1516 25.5451 26.1148 25.6181 26.0762 25.6903C26.0377 25.7625 25.9974 25.8336 25.9553 25.9038C25.9132 25.974 25.8695 26.0431 25.824 26.1111C25.7785 26.1792 25.7314 26.2461 25.6827 26.3118C25.6339 26.3776 25.5836 26.442 25.5317 26.5053C25.4798 26.5686 25.4263 26.6305 25.3714 26.6911C25.3165 26.7517 25.2601 26.811 25.2022 26.8688C25.1443 26.9267 25.0851 26.9831 25.0244 27.0381C24.9638 27.093 24.9019 27.1465 24.8386 27.1984C24.7754 27.2503 24.7109 27.3006 24.6451 27.3494C24.5794 27.3981 24.5126 27.4452 24.4445 27.4906C24.3765 27.5361 24.3074 27.5799 24.2372 27.622C24.167 27.664 24.0958 27.7044 24.0236 27.7429C23.9515 27.7815 23.8784 27.8183 23.8044 27.8533C23.7304 27.8883 23.6557 27.9214 23.5801 27.9527C23.5045 27.984 23.4281 28.0135 23.3511 28.041C23.274 28.0686 23.1964 28.0943 23.1181 28.118C23.0398 28.1418 22.9609 28.1636 22.8815 28.1835C22.8022 28.2034 22.7224 28.2213 22.6421 28.2372C22.5619 28.2532 22.4812 28.2672 22.4003 28.2792C22.3194 28.2912 22.2382 28.3012 22.1567 28.3092C22.0753 28.3173 21.9937 28.3233 21.912 28.3273C21.8302 28.3313 21.7485 28.3333 21.6667 28.3333Z"   fill="#21C491" ></path></svg>